<?xml version="1.0" encoding="utf-8"?>
<!-- Svg Vector Icons : http://www.onlinewebfonts.com/icon -->
<!DOCTYPE svg PUBLIC "-//W3C//DTD SVG 1.1//EN" "http://www.w3.org/Graphics/SVG/1.1/DTD/svg11.dtd">
<svg fill="white" version="1.1" xmlns="http://www.w3.org/2000/svg" xmlns:xlink="http://www.w3.org/1999/xlink" x="0px" y="0px" viewBox="0 0 1000 1000" enable-background="new 0 0 1000 1000" xml:space="preserve">
<metadata> Svg Vector Icons : http://www.onlinewebfonts.com/icon </metadata>
<g><path d="M314.8,471.8l-56.3,135.8h112.6L314.8,471.8z"/><path d="M10,132.5h980V255H10V132.5z"/><path d="M550.2,462h109.9v92.8H550.2V462L550.2,462z"/><path d="M10,867.5h980V316.3H10V867.5z M744.3,705.8h26.1V457.1h-26.1v-36h89.8v36H808v248.7h26.1v36h-89.8L744.3,705.8L744.3,705.8z M508.2,422.2h185.1v132.5v40.5H550.2v146h-42V422.2z M294.3,422.4h41l132.6,319.5h-41l-41.8-100.6H244.5l-41.8,100.6h-41L294.3,422.4z"/><path d="M550.2,462h109.9v92.8H550.2V462z"/></g>
</svg>